<svg width="334" height="334" viewBox="0 0 334 334" fill="none" xmlns="http://www.w3.org/2000/svg">
<path d="M163.373 265.766C163.373 263.888 164.896 262.365 166.774 262.365C168.653 262.365 170.176 263.888 170.176 265.766C170.176 267.645 168.653 269.169 166.774 269.169C164.896 269.169 163.373 267.645 163.373 265.766ZM109.689 231.949C111.09 230.638 112.434 229.343 113.681 228.096C122.551 219.226 129.12 212.653 129.686 207.933C131.714 208.318 133.89 207.728 135.46 206.158C136.83 204.788 137.449 202.953 137.329 201.158L137.572 200.386C140.165 201.996 143.612 201.681 145.864 199.429L154.729 190.564C155.93 191.184 157.166 191.709 158.432 192.136V204.788C158.432 207.768 160.374 210.293 163.061 211.173L162.629 212.048C161.276 213.23 160.416 214.965 160.416 216.905C160.416 219.129 161.54 221.088 163.252 222.249C160.521 225.992 160.528 235.281 160.528 247.814C160.528 249.464 160.557 251.197 160.613 252.982C141.694 251.641 123.972 244.321 109.689 231.949ZM93.8659 238.63C92.5373 237.302 92.5373 235.148 93.8659 233.818C95.1941 232.49 97.3477 232.49 98.6769 233.818C100.005 235.148 100.005 237.302 98.6769 238.63C97.3477 239.958 95.1941 239.958 93.8659 238.63ZM80.0769 173.28C82.1581 173.354 84.181 173.393 86.0867 173.393C98.6299 173.393 107.923 173.39 111.661 170.454C112.822 172.16 114.778 173.281 116.998 173.281C118.937 173.281 120.672 172.421 121.854 171.068L122.696 170.977C123.552 173.705 126.1 175.686 129.111 175.686H141.818C142.077 176.428 142.362 177.164 142.689 177.886L133.504 187.07C131.407 189.168 130.99 192.306 132.245 194.821L131.335 195.165C129.54 195.043 127.706 195.662 126.335 197.033C124.763 198.606 124.172 200.789 124.562 202.819C119.984 203.535 113.42 210.107 104.557 218.972C103.31 220.218 102.016 221.562 100.704 222.964C88.5842 208.954 81.4122 191.689 80.0769 173.28ZM64.2097 166.946C64.2097 165.068 65.7326 163.545 67.6107 163.545C69.4899 163.545 71.0127 165.068 71.0127 166.946C71.0127 168.825 69.4899 170.348 67.6107 170.348C65.7326 170.348 64.2097 168.825 64.2097 166.946ZM86.0867 160.489C84.1826 160.489 82.1613 160.529 80.081 160.604C81.4414 142.03 88.743 124.626 101.073 110.558C102.392 111.968 103.693 113.318 104.946 114.57C113.816 123.441 120.389 130.01 125.108 130.576C124.724 132.604 125.314 134.781 126.884 136.349C128.255 137.721 130.089 138.34 131.884 138.218L131.966 138.276C130.868 140.744 131.324 143.736 133.349 145.76L142.944 155.354C142.497 156.286 142.11 157.238 141.778 158.206H129.111C126.154 158.206 123.65 160.117 122.75 162.769L121.854 162.59C120.672 161.237 118.937 160.377 116.998 160.377C114.774 160.377 112.813 161.502 111.653 163.214C107.91 160.482 98.6211 160.489 86.0867 160.489ZM110.113 101.626C124.348 89.4544 141.948 82.2664 160.717 80.957C160.665 82.6984 160.636 84.3904 160.636 85.9997C160.636 98.5437 160.638 107.836 163.576 111.574C161.869 112.734 160.749 114.692 160.749 116.91C160.749 118.85 161.609 120.585 162.962 121.768L163.17 122.681C160.426 123.526 158.432 126.082 158.432 129.105V141.648C157.353 142.012 156.296 142.449 155.262 142.954L145.709 133.4C143.589 131.281 140.406 130.874 137.878 132.177C137.985 130.398 137.368 128.585 136.008 127.225C134.436 125.652 132.253 125.061 130.223 125.452C129.508 120.873 122.935 114.31 114.071 105.448C112.834 104.21 111.502 102.926 110.113 101.626ZM94.1539 99.877C92.8247 98.549 92.8247 96.3944 94.1539 95.0664C95.4821 93.737 97.6357 93.737 98.9643 95.0664C100.292 96.3944 100.292 98.549 98.9643 99.877C97.6357 101.205 95.4821 101.205 94.1539 99.877ZM163.046 68.0224C163.046 66.1437 164.569 64.621 166.446 64.621C168.326 64.621 169.849 66.1437 169.849 68.0224C169.849 69.901 168.326 71.4237 166.446 71.4237C164.569 71.4237 163.046 69.901 163.046 68.0224ZM222.932 100.881C221.572 102.156 220.268 103.414 219.054 104.626C210.185 113.497 203.616 120.07 203.049 124.789C201.022 124.404 198.846 124.994 197.277 126.564C195.905 127.936 195.286 129.77 195.408 131.564L194.972 132.398C192.422 131.018 189.173 131.401 187.02 133.556L177.954 142.62C177.282 142.316 176.601 142.041 175.91 141.797V129.105C175.91 126.093 173.928 123.544 171.197 122.689L171.438 121.768C172.793 120.585 173.653 118.85 173.653 116.91C173.653 114.688 172.528 112.726 170.816 111.566C173.548 107.824 173.54 98.5344 173.54 85.9997C173.54 84.3944 173.512 82.7077 173.46 80.9717C191.75 82.297 208.917 89.2144 222.932 100.881ZM239.241 94.465C240.57 95.793 240.57 97.9477 239.241 99.2757C237.913 100.604 235.76 100.604 234.432 99.2757C233.102 97.9477 233.102 95.793 234.432 94.465C235.76 93.137 237.913 93.137 239.241 94.465ZM253.821 160.709C251.772 160.637 249.78 160.598 247.902 160.598C235.36 160.598 226.066 160.601 222.329 163.537C221.166 161.832 219.21 160.71 216.992 160.71C215.052 160.71 213.317 161.57 212.134 162.925L211.233 163.01C210.406 160.233 207.837 158.206 204.792 158.206H192.161C191.742 156.993 191.245 155.801 190.646 154.646L199.378 145.916C201.514 143.778 201.912 140.562 200.572 138.025L201.401 137.557C203.194 137.678 205.03 137.06 206.401 135.688C207.973 134.116 208.564 131.934 208.174 129.904C212.752 129.188 219.316 122.614 228.18 113.752C229.445 112.485 230.76 111.12 232.09 109.697C245.234 124.318 252.481 142.338 253.821 160.709ZM269.728 166.762C269.728 168.64 268.205 170.164 266.326 170.164C264.448 170.164 262.925 168.64 262.925 166.762C262.925 164.884 264.448 163.361 266.326 163.361C268.205 163.361 269.728 164.884 269.728 166.762ZM247.902 173.502C249.776 173.502 251.762 173.464 253.808 173.392C252.446 191.6 245.281 209.457 232.321 223.992C230.992 222.572 229.68 221.207 228.416 219.945C219.546 211.076 212.972 204.506 208.253 203.94C208.638 201.913 208.048 199.736 206.478 198.166C205.108 196.796 203.273 196.177 201.478 196.298L200.145 195.266C201.796 192.666 201.492 189.184 199.222 186.916L190.902 178.593C191.366 177.642 191.786 176.676 192.13 175.686H204.792C207.71 175.686 210.188 173.822 211.117 171.224L212.134 171.401C213.317 172.754 215.052 173.614 216.992 173.614C219.216 173.614 221.176 172.489 222.336 170.777C226.078 173.509 235.368 173.502 247.902 173.502ZM158.108 166.894C158.108 164.624 158.972 162.353 160.7 160.625C164.157 157.169 169.781 157.169 173.238 160.625C176.694 164.081 176.696 169.706 173.238 173.164C169.781 176.621 164.157 176.621 160.7 173.164C158.972 171.436 158.108 169.165 158.108 166.894ZM223.198 232.843C209.108 244.669 191.797 251.669 173.346 252.981C173.401 251.197 173.432 249.462 173.432 247.814C173.432 235.272 173.428 225.978 170.492 222.242C172.198 221.081 173.32 219.124 173.32 216.905C173.32 214.965 172.46 213.23 171.105 212.048L170.757 211.317C173.712 210.609 175.91 207.958 175.91 204.788V191.99C176.79 191.678 177.66 191.328 178.509 190.918L186.864 199.274C189.001 201.412 192.218 201.807 194.757 200.466L195.485 202.292C195.364 204.085 195.982 205.919 197.354 207.292C198.926 208.862 201.109 209.454 203.138 209.065C203.854 213.641 210.428 220.205 219.29 229.069C220.513 230.292 221.828 231.558 223.198 232.843ZM238.857 234.958C240.185 236.286 240.185 238.441 238.857 239.769C237.528 241.097 235.374 241.097 234.046 239.769C232.717 238.441 232.717 236.286 234.046 234.958C235.374 233.63 237.528 233.63 238.857 234.958ZM165.228 302.709V324.345C165.228 324.884 166.052 325.319 167.081 325.319C168.112 325.319 168.946 324.884 168.946 324.345H168.948V302.709C168.948 301.817 169.67 301.552 170.562 301.552C171.454 301.552 172.177 301.817 172.177 302.709V323.429C172.177 323.969 172.497 324.405 173.528 324.405C174.557 324.405 175.393 323.969 175.393 323.429C175.393 323.425 175.39 323.422 175.39 323.419L176.325 298.297C176.325 293.635 173.637 290.43 169.921 289.362L169.957 287.761C170.921 287.164 171.534 286.27 171.534 285.272C171.534 284.322 170.977 283.472 170.094 282.874C170.557 280.888 170.985 278.537 171.37 275.957C197.238 274.937 221.509 264.943 240.584 247.462C242.302 248.737 243.936 249.884 245.424 250.853L246.893 252.261C246.714 253.254 246.92 254.197 247.558 254.837C248.222 255.501 249.216 255.697 250.25 255.478L250.833 256.036C248.257 261.325 249.026 268.185 255.326 274.485C262.657 281.814 274.921 285.918 279.816 281.025C284.71 276.129 280.606 263.864 273.277 256.535C266.976 250.235 260.117 249.466 254.829 252.04L254.27 251.458C254.489 250.422 254.293 249.43 253.629 248.766C253.07 248.209 252.28 247.981 251.428 248.052C250.27 246.09 248.688 243.77 246.829 241.264C264.681 222.107 274.901 197.6 275.95 171.454C278.622 171.057 281.056 170.616 283.094 170.136C283.684 170.94 284.494 171.444 285.394 171.444C286.393 171.444 287.286 170.83 287.885 169.866L289.485 169.832C290.554 173.545 293.756 176.234 298.418 176.234L323.552 175.3V175.294C324.09 175.294 324.528 174.46 324.528 173.428C324.528 172.398 324.09 172.08 323.552 172.08C323.517 172.08 323.486 172.084 323.453 172.086H302.832C301.94 172.086 301.674 171.364 301.674 170.473C301.674 169.581 301.94 168.858 302.832 168.858H324.466V168.857C325.005 168.857 325.444 168.034 325.444 167.004C325.444 165.973 325.005 165.138 324.466 165.138V165.137H302.832C301.94 165.137 301.674 164.414 301.674 163.522C301.674 162.63 301.94 161.908 302.832 161.908H323.552C324.09 161.908 324.528 161.588 324.528 160.557C324.528 159.528 324.09 158.693 323.552 158.693C323.548 158.693 323.545 158.694 323.542 158.694L298.418 157.76C293.756 157.76 290.554 160.449 289.485 164.164L287.885 164.128C287.286 163.164 286.393 162.55 285.394 162.55C284.46 162.55 283.622 163.092 283.028 163.949C281.004 163.476 278.598 163.038 275.957 162.646C274.938 136.357 264.649 111.714 246.653 92.493L251.53 87.6157C252.593 87.9504 253.51 87.8944 254.048 87.3584C254.584 86.821 254.64 85.9037 254.305 84.841L256.721 82.425L285.252 53.8944L285.25 53.893C287.006 52.137 286.157 50.581 284.3 48.7077C282.569 46.9624 280.45 46.5757 278.68 47.4704C272.129 51.5317 242.132 71.509 249.113 77.729C249.502 78.1517 249.334 78.0117 249.66 78.3637L248.966 79.021C247.576 78.373 246.324 78.301 245.657 78.9677C245.009 79.6144 245.057 80.8144 245.654 82.1584L244.341 83.4024C243.082 84.2464 241.734 85.205 240.329 86.2477C221.325 68.9384 197.202 59.0357 171.498 57.993C171.061 55.0397 170.566 52.3877 170.029 50.2237C170.782 49.6557 171.253 48.885 171.253 48.0277C171.253 47.0904 170.692 46.249 169.805 45.6717L169.788 44.865C175.349 42.9464 179.654 37.5517 179.654 28.6424C179.654 18.2757 173.885 6.70239 166.962 6.70239C160.04 6.70239 154.269 18.2757 154.269 28.6424C154.269 37.5517 158.576 42.9464 164.137 44.865L164.12 45.6717C163.232 46.249 162.67 47.0904 162.67 48.0277C162.67 48.9317 163.192 49.745 164.021 50.3197L164.012 50.7691C163.526 52.8237 163.08 55.2824 162.68 57.9837C136.498 58.9904 111.949 69.189 92.7575 87.0384C90.7643 85.561 88.893 84.261 87.2217 83.2064C87.2899 82.333 87.057 81.525 86.4846 80.9517C85.7785 80.2464 84.7133 80.0477 83.6086 80.3064L82.4513 79.1997C84.3227 75.8184 83.9597 71.6517 80.6622 68.3544L62.2299 51.245L62.2263 51.2477C61.8451 50.8677 60.9455 51.149 60.217 51.877C59.4883 52.6064 59.5717 53.1397 59.9523 53.521C59.9769 53.5464 60.0029 53.5637 60.0285 53.585L74.6097 68.1664C75.2399 68.7984 74.9165 69.497 74.2857 70.1277C73.655 70.757 72.9566 71.081 72.3258 70.4504L57.0274 55.153H57.0269C56.6461 54.7717 55.7555 55.045 55.0269 55.773C54.2982 56.5024 54.0165 57.401 54.3977 57.7824L54.3966 57.7837L69.6951 73.081C70.3258 73.7117 70.0023 74.4104 69.3711 75.041C68.7403 75.6717 68.0425 75.9957 67.4118 75.365L52.7607 60.7144C52.3789 60.333 51.8446 60.249 51.1159 60.9784C50.3878 61.7064 50.1066 62.6064 50.4873 62.9877C50.4899 62.9904 50.493 62.9904 50.4951 62.993L67.5993 81.4184C70.8961 84.7157 75.0622 85.0784 78.4435 83.2077L79.5503 84.3637C79.2925 85.469 79.4899 86.5344 80.1961 87.241C80.8518 87.8957 81.8175 88.1064 82.8362 87.9277C83.8706 89.553 85.131 91.361 86.555 93.281C68.5493 112.909 59.043 137.581 58.0367 162.538C57.6253 162.6 57.2217 162.661 56.8217 162.724H50.8487C50.3342 161.737 49.6461 161.128 48.8867 161.128C48.1279 161.128 47.4389 161.737 46.9247 162.724H43.5081H3.15913V162.728C0.675798 162.725 0.175798 164.426 0.164861 167.065C0.154444 169.524 1.37997 171.296 3.26382 171.914C10.7685 173.674 46.1055 180.76 45.5675 171.424C45.5909 170.85 45.6107 171.069 45.6285 170.589L46.5842 170.616C47.1097 172.057 47.9441 172.993 48.8867 172.993C49.8023 172.993 50.617 172.11 51.1441 170.74L54.9122 170.841C55.9066 171.017 56.9509 171.185 58.0346 171.345C59.0211 196.148 68.3971 220.676 86.1727 240.252C84.8935 241.976 83.743 243.613 82.7717 245.106L81.0747 246.876C80.0821 246.696 79.1394 246.902 78.5003 247.541C77.8362 248.205 77.6394 249.197 77.8581 250.233L77.3009 250.814C72.0113 248.24 65.1523 249.009 58.8518 255.307C51.5222 262.64 47.4179 274.904 52.3133 279.798C57.2075 284.693 69.4722 280.589 76.8023 273.258C83.1023 266.96 83.8711 260.1 81.2966 254.81L81.8785 254.252C82.9143 254.472 83.9061 254.274 84.5695 253.61C85.1545 253.026 85.3733 252.186 85.2685 251.286C87.2878 250.118 89.7122 248.473 92.3435 246.524C111.573 264.589 136.253 274.924 162.589 275.958C162.982 278.594 163.42 280.997 163.894 283.012C163.122 283.598 162.641 284.392 162.641 285.272C162.641 286.27 163.254 287.164 164.218 287.762L164.254 289.362C160.54 290.43 157.85 293.635 157.85 298.297L158.785 323.429H158.792C158.792 323.969 159.626 324.405 160.657 324.405C161.686 324.405 162.006 323.969 162.006 323.429C162.006 323.396 162.001 323.362 161.998 323.33V302.709C161.998 301.817 162.721 301.552 163.613 301.552C164.505 301.552 165.228 301.817 165.228 302.709Z" fill="currentColor"/>
</svg>
