<svg width="32" height="32" viewBox="0 0 32 32" fill="none" xmlns="http://www.w3.org/2000/svg">
<g clip-path="url(#clip0_18_7)">
<path fill-rule="evenodd" clip-rule="evenodd" d="M15.7529 0.291016C16.1668 0.291304 16.4972 0.467054 16.4971 0.683594L16.498 9.37891C16.4981 9.73736 16.7884 9.84337 17.1465 9.84375C17.5049 9.84376 17.7953 9.73751 17.7959 9.37891V1.09082C17.7947 1.07748 17.7918 1.06495 17.792 1.05078C17.7922 0.834257 17.9206 0.659369 18.335 0.65918C18.7487 0.659348 19.0843 0.834581 19.085 1.05078L19.0869 1.05176L19.4629 11.1523C19.4629 13.0266 18.3815 14.3141 16.8887 14.7432L16.9033 15.3867C17.2907 15.6272 17.5369 15.9866 17.5371 16.3877C17.5367 16.7132 17.373 17.0086 17.1055 17.2373C17.2807 18.012 17.4432 18.9141 17.5898 19.9004C22.5941 20.0817 27.451 21.0992 32 22.8848V32H30.1094C26.4305 30.3267 22.4726 29.2984 18.377 28.9785C18.4023 29.7428 18.415 30.4861 18.415 31.1895C18.4151 31.4635 18.4142 31.7338 18.4141 32H13.2305C13.2303 31.7335 13.2295 31.4628 13.2295 31.1885C13.2292 30.4767 13.2428 29.7233 13.2686 28.9482C9.02825 29.2274 4.94195 30.2664 1.16699 32H0V22.8799C4.38634 21.1591 9.11459 20.124 14.0527 19.9111C14.1937 18.9608 14.3496 18.0889 14.5176 17.333C14.1774 17.0943 13.9632 16.76 13.9629 16.3877C13.963 15.9862 14.2094 15.6276 14.5967 15.3867L14.6104 14.7432C13.1179 14.3137 12.037 13.0263 12.0371 11.1523L12.4131 1.05469L12.4121 1.05176C12.4123 0.835194 12.7483 0.659142 13.1621 0.65918C13.5762 0.659106 13.704 0.834925 13.7041 1.05176V9.37891C13.7041 9.73738 13.995 9.84371 14.3535 9.84375C14.712 9.84385 15.0019 9.73723 15.002 9.37891V0.683594C15.002 0.466879 15.3386 0.291205 15.7529 0.291016ZM15.7051 22.5781C14.9501 22.5779 14.3377 23.1904 14.3379 23.9453C14.3379 24.7001 14.9501 25.3122 15.7051 25.3125C16.46 25.3125 17.0723 24.7002 17.0723 23.9453C17.0723 23.19 16.4603 22.5778 15.7051 22.5781Z" fill="white"/>
</g>
<defs>
<clipPath id="clip0_18_7">
<rect width="32" height="32" fill="white"/>
</clipPath>
</defs>
</svg>
